<svg width="13" height="30" viewBox="0 0 13 30" fill="none" xmlns="http://www.w3.org/2000/svg">
<path d="M2.00002 29.1399C1.65592 29.1407 1.31932 29.0395 1.03282 28.849C0.746225 28.6586 0.522524 28.3874 0.390024 28.0699C0.299324 27.8572 0.251425 27.6286 0.249025 27.3974C0.246725 27.1661 0.289925 26.9367 0.376325 26.7221C0.462725 26.5076 0.590524 26.3122 0.752424 26.1471C0.914324 25.982 1.10722 25.8504 1.32002 25.7599C2.73442 25.1603 4.01842 24.2907 5.10002 23.1999C7.33282 20.9541 8.58732 17.9167 8.59002 14.7499C8.57932 11.5788 7.31382 8.5408 5.07002 6.29988C3.98632 5.20894 2.70312 4.33644 1.29003 3.72988C0.862725 3.547 0.525125 3.20251 0.350925 2.7716C0.176625 2.3407 0.179925 1.85837 0.360025 1.42988C0.446325 1.21604 0.574623 1.02173 0.737523 0.858495C0.900323 0.695259 1.09432 0.566432 1.30802 0.479673C1.52162 0.392914 1.75052 0.349995 1.98112 0.353466C2.21162 0.356938 2.43912 0.406729 2.65002 0.49988C6.34192 2.07523 9.27822 5.02222 10.84 8.71988C11.6452 10.6177 12.0601 12.6583 12.06 14.7199C12.059 16.7804 11.6477 18.82 10.85 20.7199C10.077 22.5565 8.95263 24.2244 7.54003 25.6299C6.14753 27.0638 4.48582 28.209 2.65002 28.9999C2.44532 29.0907 2.22402 29.1384 2.00002 29.1399Z" fill="#B3B3B3"/>
</svg>
