<svg width="38" height="30" xmlns="http://www.w3.org/2000/svg">

 <g>
  <title>background</title>
  <rect fill="none" id="canvas_background" height="402" width="582" y="-1" x="-1"/>
 </g>
 <g>
  <title>Layer 1</title>
  <path id="svg_1" fill="#B3B3B3" d="m17.860001,0l-14.23,10.42l0,8.65l14.23,10.42c-0.030001,-22.23 0,-11.32 0,-29.49z"/>
  <path id="svg_2" fill="#B3B3B3" d="m0,21.9198l7.47,0l0,-14.35999l-7.47,0l0,14.35999z"/>
  <path id="svg_4" fill="#B3B3B3" d="m23.690001,22.080099c-0.3806,-0.0005 -0.749401,-0.1325 -1.0438,-0.373699c-0.294399,-0.241199 -0.4963,-0.5767 -0.5716,-0.9498c-0.075399,-0.3731 -0.019501,-0.7607 0.1583,-1.097198c0.1777,-0.3365 0.4664,-0.601301 0.816999,-0.7493c0.815599,-0.346601 1.510599,-0.9263 1.9981,-1.666302c0.4874,-0.740099 0.7456,-1.607599 0.742001,-2.493699c0.0035,-0.6011 -0.115601,-1.1966 -0.35,-1.75c-0.2369,-0.5374 -0.576601,-1.0232 -1,-1.43c-0.4088,-0.4212 -0.894201,-0.7606 -1.43,-1c-0.3536,-0.1974 -0.6217,-0.5186 -0.7526,-0.90185c-0.131001,-0.38321 -0.115601,-0.80132 0.0434,-1.1738c0.158899,-0.372479 0.449999,-0.67299 0.8172,-0.843649c0.3673,-0.17067 0.7848,-0.19942 1.172001,-0.08072c1.172499,0.50181 2.205,1.28212 3.0077,2.27324c0.802799,0.99108 1.351599,2.16308 1.5989,3.41438c0.247299,1.2512 0.185598,2.5439 -0.1798,3.7658c-0.365301,1.222 -1.023401,2.336399 -1.916901,3.246599c-0.705799,0.713301 -1.545099,1.280701 -2.469999,1.67c-0.201801,0.089201 -0.4193,0.136801 -0.6399,0.139999z"/>
 </g>
</svg>